<svg xmlns="http://www.w3.org/2000/svg" xmlns:xlink="http://www.w3.org/1999/xlink" version="1.1" data-diagram-type="CLASS" style="width:1356px;height:1566px;background:#FFFFFF;" width="1356.25px" height="1566.25px" viewBox="0 0 1356 1566" zoomAndPan="magnify" preserveAspectRatio="none" contentStyleType="text/css"><?plantuml 1.2026.8?><defs/><g font-family="sans-serif" lengthAdjust="spacing"><g class="title" data-source-line="13"><text x="552.699" y="30.667" fill="#000" font-size="17.5" textLength="242.727" font-weight="700">Workspace — Class Diagram</text></g><!--cluster workspace--><g class="cluster" data-qualified-name="workspace" id="ent0001" data-source-line="15"><rect x="17.5" y="63.262" width="892.5" height="1212.5" fill="#E8EAF6" style="stroke:#000;stroke-width:1.875;" rx="3.125" ry="3.125"/><text x="418.517" y="83.928" fill="#000" font-size="17.5" textLength="90.465" font-weight="700">workspace</text></g><!--class MailServiceClient--><g class="entity" data-qualified-name="MailServiceClient" id="ent0005" data-source-line="62"><rect x="930.625" y="943.262" width="416.21" height="158.281" fill="#FFF" style="stroke:#37474F;stroke-width:0.625;" rx="3.125" ry="3.125"/><ellipse cx="1075.483" cy="968.379" rx="13.75" ry="13.75" fill="#90CAF9" style="stroke:#181818;stroke-width:1.25;"/><path d="M1078.94,963.223 Q1079.135,962.949 1079.37,962.813 Q1079.604,962.676 1079.877,962.676 Q1080.346,962.676 1080.639,963.008 Q1080.932,963.32 1080.932,964.082 L1080.932,965.898 Q1080.932,966.66 1080.639,966.992 Q1080.346,967.324 1079.877,967.324 Q1079.448,967.324 1079.194,967.07 Q1078.94,966.836 1078.803,966.191 Q1078.745,965.742 1078.51,965.508 Q1078.1,965.039 1077.338,964.766 Q1076.577,964.492 1075.795,964.492 Q1074.838,964.492 1074.037,964.902 Q1073.256,965.313 1072.631,966.25 Q1072.026,967.188 1072.026,968.477 L1072.026,969.844 Q1072.026,971.387 1073.139,972.422 Q1074.252,973.438 1076.245,973.438 Q1077.416,973.438 1078.237,973.125 Q1078.725,972.93 1079.252,972.383 Q1079.584,972.051 1079.76,971.953 Q1079.955,971.855 1080.209,971.855 Q1080.62,971.855 1080.932,972.188 Q1081.264,972.5 1081.264,972.93 Q1081.264,973.359 1080.834,973.867 Q1080.209,974.59 1079.213,975 Q1077.866,975.566 1076.245,975.566 Q1074.35,975.566 1072.846,974.785 Q1071.616,974.16 1070.756,972.832 Q1069.897,971.484 1069.897,969.883 L1069.897,968.438 Q1069.897,966.777 1070.659,965.352 Q1071.44,963.906 1072.807,963.145 Q1074.174,962.363 1075.717,962.363 Q1076.635,962.363 1077.436,962.578 Q1078.256,962.773 1078.94,963.223 Z " fill="#000"/><text x="1131.525" y="965.083" fill="#000" font-size="15" textLength="55.034" font-style="italic">«Client»</text><text x="1101.108" y="983.95" fill="#000" font-size="15" textLength="115.869">MailServiceClient</text><line x1="931.875" y1="993.496" x2="1345.585" y2="993.496" style="stroke:#37474F;stroke-width:0.625;"/><text x="938.125" y="1016.663" fill="#000" font-size="17.5" textLength="227.568">-transporter : MailTransporter</text><text x="938.125" y="1038.674" fill="#000" font-size="17.5" textLength="141.965">-fromEmail : string</text><text x="938.125" y="1060.686" fill="#000" font-size="17.5" textLength="154.646">-appBaseUrl : string</text><line x1="931.875" y1="1069.531" x2="1345.585" y2="1069.531" style="stroke:#37474F;stroke-width:0.625;"/><text x="938.125" y="1092.698" fill="#000" font-size="17.5" textLength="401.21">+sendInviteEmail(email : string, token : string) : void</text></g><!--class Workspace--><g class="entity" data-qualified-name="Workspace" id="ent0006" data-source-line="69"><rect x="354.375" y="1300.762" width="219.241" height="246.328" fill="#FFF" style="stroke:#37474F;stroke-width:0.625;" rx="3.125" ry="3.125"/><ellipse cx="421.172" cy="1325.879" rx="13.75" ry="13.75" fill="#90CAF9" style="stroke:#181818;stroke-width:1.25;"/><path d="M424.629,1320.723 Q424.824,1320.449 425.059,1320.313 Q425.293,1320.176 425.566,1320.176 Q426.035,1320.176 426.328,1320.508 Q426.621,1320.82 426.621,1321.582 L426.621,1323.398 Q426.621,1324.16 426.328,1324.492 Q426.035,1324.824 425.566,1324.824 Q425.137,1324.824 424.883,1324.57 Q424.629,1324.336 424.492,1323.691 Q424.434,1323.242 424.199,1323.008 Q423.789,1322.539 423.027,1322.266 Q422.266,1321.992 421.484,1321.992 Q420.527,1321.992 419.727,1322.402 Q418.945,1322.813 418.32,1323.75 Q417.715,1324.688 417.715,1325.977 L417.715,1327.344 Q417.715,1328.887 418.828,1329.922 Q419.941,1330.938 421.934,1330.938 Q423.105,1330.938 423.926,1330.625 Q424.414,1330.43 424.941,1329.883 Q425.273,1329.551 425.449,1329.453 Q425.645,1329.355 425.898,1329.355 Q426.309,1329.355 426.621,1329.688 Q426.953,1330 426.953,1330.43 Q426.953,1330.859 426.523,1331.367 Q425.898,1332.09 424.902,1332.5 Q423.555,1333.066 421.934,1333.066 Q420.039,1333.066 418.535,1332.285 Q417.305,1331.66 416.445,1330.332 Q415.586,1328.984 415.586,1327.383 L415.586,1325.938 Q415.586,1324.277 416.348,1322.852 Q417.129,1321.406 418.496,1320.645 Q419.863,1319.863 421.406,1319.863 Q422.324,1319.863 423.125,1320.078 Q423.945,1320.273 424.629,1320.723 Z " fill="#000"/><text x="457.208" y="1322.583" fill="#000" font-size="15" textLength="54.199" font-style="italic">«Entity»</text><text x="446.797" y="1341.45" fill="#000" font-size="15" textLength="75.022">Workspace</text><line x1="355.625" y1="1350.996" x2="572.366" y2="1350.996" style="stroke:#37474F;stroke-width:0.625;"/><text x="361.875" y="1374.163" fill="#000" font-size="17.5" textLength="76.827">-id : string</text><text x="361.875" y="1396.174" fill="#000" font-size="17.5" textLength="106.982">-name : string</text><text x="361.875" y="1418.186" fill="#000" font-size="17.5" textLength="96.293">-logo : string</text><text x="361.875" y="1440.198" fill="#000" font-size="17.5" textLength="176.051">-plan : WorkspacePlan</text><text x="361.875" y="1462.209" fill="#000" font-size="17.5" textLength="162.422">-remainingCredit : int</text><text x="361.875" y="1484.221" fill="#000" font-size="17.5" textLength="147.844">-monthlyQuota : int</text><text x="361.875" y="1506.233" fill="#000" font-size="17.5" textLength="204.241">-planExpiresAt : DateTime</text><text x="361.875" y="1528.245" fill="#000" font-size="17.5" textLength="145.913">-brandVoice : Json</text><line x1="355.625" y1="1537.09" x2="572.366" y2="1537.09" style="stroke:#37474F;stroke-width:0.625;"/></g><g class="entity" data-qualified-name="GMN11" id="ent0012" data-source-line="86"><path d="M947.5,1397.012 L947.5,1450.391 A0,0 0 0 0 947.5,1450.391 L1330.536,1450.391 A0,0 0 0 0 1330.536,1450.391 L1330.536,1409.512 L1318.036,1397.012 L1143.75,1397.012 L1138.75,1102.191 L1133.75,1397.012 L947.5,1397.012 A0,0 0 0 0 947.5,1397.012" style="stroke:#181818;stroke-width:0.625;" fill="#FEFFDD"/><path d="M1318.036,1397.012 L1318.036,1409.512 L1330.536,1409.512 L1318.036,1397.012" style="stroke:#181818;stroke-width:0.625;" fill="#FEFFDD"/><text x="955" y="1420.131" fill="#000" font-size="16.25" textLength="356.786">Email moi thanh vien duoc day vao `email-queue`</text><text x="955" y="1440.57" fill="#000" font-size="16.25" textLength="318.803">(EmailWorker xu ly) de khong block request.</text></g><!--class WorkspaceController--><g class="entity" data-qualified-name="workspace.WorkspaceController" id="ent0002" data-source-line="16"><rect x="166.875" y="118.262" width="631.132" height="268.34" fill="#FFF" style="stroke:#37474F;stroke-width:0.625;" rx="3.125" ry="3.125"/><ellipse cx="407.105" cy="143.379" rx="13.75" ry="13.75" fill="#90CAF9" style="stroke:#181818;stroke-width:1.25;"/><path d="M410.562,138.223 Q410.757,137.949 410.992,137.813 Q411.226,137.676 411.5,137.676 Q411.968,137.676 412.261,138.008 Q412.554,138.32 412.554,139.082 L412.554,140.898 Q412.554,141.66 412.261,141.992 Q411.968,142.324 411.5,142.324 Q411.07,142.324 410.816,142.07 Q410.562,141.836 410.425,141.191 Q410.367,140.742 410.132,140.508 Q409.722,140.039 408.961,139.766 Q408.199,139.492 407.418,139.492 Q406.461,139.492 405.66,139.902 Q404.879,140.313 404.254,141.25 Q403.648,142.188 403.648,143.477 L403.648,144.844 Q403.648,146.387 404.761,147.422 Q405.875,148.438 407.867,148.438 Q409.039,148.438 409.859,148.125 Q410.347,147.93 410.875,147.383 Q411.207,147.051 411.382,146.953 Q411.578,146.855 411.832,146.855 Q412.242,146.855 412.554,147.188 Q412.886,147.5 412.886,147.93 Q412.886,148.359 412.457,148.867 Q411.832,149.59 410.836,150 Q409.488,150.566 407.867,150.566 Q405.972,150.566 404.468,149.785 Q403.238,149.16 402.379,147.832 Q401.519,146.484 401.519,144.883 L401.519,143.438 Q401.519,141.777 402.281,140.352 Q403.062,138.906 404.429,138.145 Q405.797,137.363 407.339,137.363 Q408.257,137.363 409.058,137.578 Q409.879,137.773 410.562,138.223 Z " fill="#000"/><text x="461.899" y="140.083" fill="#000" font-size="15" textLength="81.709" font-style="italic">«Controller»</text><text x="432.73" y="158.95" fill="#000" font-size="15" textLength="140.046">WorkspaceController</text><line x1="168.125" y1="168.496" x2="796.757" y2="168.496" style="stroke:#37474F;stroke-width:0.625;"/><text x="174.375" y="191.663" fill="#000" font-size="17.5" textLength="308.292">-workspaceService : WorkspaceService</text><line x1="168.125" y1="200.508" x2="796.757" y2="200.508" style="stroke:#37474F;stroke-width:0.625;"/><text x="174.375" y="223.674" fill="#000" font-size="17.5" textLength="526.615">+createWorkspace(input : CreateWorkspaceDTO) : WorkspaceDTO</text><text x="174.375" y="245.686" fill="#000" font-size="17.5" textLength="616.132">+updateWorkspace(id : string, input : UpdateWorkspaceDTO) : WorkspaceDTO</text><text x="174.375" y="267.698" fill="#000" font-size="17.5" textLength="274.771">+deleteWorkspace(id : string) : void</text><text x="174.375" y="289.709" fill="#000" font-size="17.5" textLength="321.383">+listMember(id : string) : MemberListDTO</text><text x="174.375" y="311.721" fill="#000" font-size="17.5" textLength="547.054">+inviteMember(id : string, input : InviteMemberDTO) : WorkspaceInvite</text><text x="174.375" y="333.733" fill="#000" font-size="17.5" textLength="374.968">+acceptInvite(token : string) : AcceptInviteResult</text><text x="174.375" y="355.745" fill="#000" font-size="17.5" textLength="268.926">+leaveWorkspace(id : string) : void</text><text x="174.375" y="377.756" fill="#000" font-size="17.5" textLength="407.977">+removeMember(id : string, memberId : string) : void</text></g><!--class WorkspaceService--><g class="entity" data-qualified-name="workspace.WorkspaceService" id="ent0003" data-source-line="27"><rect x="95" y="432.012" width="775.054" height="312.363" fill="#FFF" style="stroke:#37474F;stroke-width:0.625;" rx="3.125" ry="3.125"/><ellipse cx="414.695" cy="457.129" rx="13.75" ry="13.75" fill="#90CAF9" style="stroke:#181818;stroke-width:1.25;"/><path d="M418.152,451.973 Q418.347,451.699 418.582,451.563 Q418.816,451.426 419.089,451.426 Q419.558,451.426 419.851,451.758 Q420.144,452.07 420.144,452.832 L420.144,454.648 Q420.144,455.41 419.851,455.742 Q419.558,456.074 419.089,456.074 Q418.66,456.074 418.406,455.82 Q418.152,455.586 418.015,454.941 Q417.957,454.492 417.722,454.258 Q417.312,453.789 416.55,453.516 Q415.789,453.242 415.007,453.242 Q414.05,453.242 413.25,453.652 Q412.468,454.063 411.843,455 Q411.238,455.938 411.238,457.227 L411.238,458.594 Q411.238,460.137 412.351,461.172 Q413.464,462.188 415.457,462.188 Q416.628,462.188 417.449,461.875 Q417.937,461.68 418.464,461.133 Q418.796,460.801 418.972,460.703 Q419.167,460.605 419.421,460.605 Q419.832,460.605 420.144,460.938 Q420.476,461.25 420.476,461.68 Q420.476,462.109 420.046,462.617 Q419.421,463.34 418.425,463.75 Q417.078,464.316 415.457,464.316 Q413.562,464.316 412.058,463.535 Q410.828,462.91 409.968,461.582 Q409.109,460.234 409.109,458.633 L409.109,457.188 Q409.109,455.527 409.871,454.102 Q410.652,452.656 412.019,451.895 Q413.386,451.113 414.929,451.113 Q415.847,451.113 416.648,451.328 Q417.468,451.523 418.152,451.973 Z " fill="#000"/><text x="469.489" y="453.833" fill="#000" font-size="15" textLength="66.702" font-style="italic">«Service»</text><text x="440.32" y="472.7" fill="#000" font-size="15" textLength="125.039">WorkspaceService</text><line x1="96.25" y1="482.246" x2="868.804" y2="482.246" style="stroke:#37474F;stroke-width:0.625;"/><text x="102.5" y="505.413" fill="#000" font-size="17.5" textLength="358.878">-workspaceRepository : WorkspaceRepository</text><text x="102.5" y="527.424" fill="#000" font-size="17.5" textLength="290.775">-mailServiceClient : MailServiceClient</text><line x1="96.25" y1="536.27" x2="868.804" y2="536.27" style="stroke:#37474F;stroke-width:0.625;"/><text x="102.5" y="559.436" fill="#000" font-size="17.5" textLength="642.356">+createWorkspace(userId : string, input : CreateWorkspaceDTO) : WorkspaceDTO</text><text x="102.5" y="581.448" fill="#000" font-size="17.5" textLength="616.132">+updateWorkspace(id : string, input : UpdateWorkspaceDTO) : WorkspaceDTO</text><text x="102.5" y="603.459" fill="#000" font-size="17.5" textLength="274.771">+deleteWorkspace(id : string) : void</text><text x="102.5" y="625.471" fill="#000" font-size="17.5" textLength="330.133">+listMembers(id : string) : MemberListDTO</text><text x="102.5" y="647.483" fill="#000" font-size="17.5" textLength="760.054">+inviteMember(workspaceId : string, inviterId : string, input : InviteMemberDTO) : WorkspaceInvite</text><text x="102.5" y="669.495" fill="#000" font-size="17.5" textLength="356.451">+verifyInvite(token : string) : VerifyInviteResult</text><text x="102.5" y="691.506" fill="#000" font-size="17.5" textLength="469.287">+leaveWorkspace(workspaceId : string, userId : string) : void</text><text x="102.5" y="713.518" fill="#000" font-size="17.5" textLength="613.201">+removeMember(workspaceId : string, memberId : string, actorId : string) : void</text><text x="102.5" y="735.53" fill="#000" font-size="17.5" textLength="660.377">-removeMemberInternal(workspaceId : string, memberId : string, action : string) : void</text></g><!--class WorkspaceRepository--><g class="entity" data-qualified-name="workspace.WorkspaceRepository" id="ent0004" data-source-line="40"><rect x="37.5" y="789.512" width="851.881" height="466.445" fill="#FFF" style="stroke:#37474F;stroke-width:0.625;" rx="3.125" ry="3.125"/><ellipse cx="384.769" cy="814.629" rx="13.75" ry="13.75" fill="#90CAF9" style="stroke:#181818;stroke-width:1.25;"/><path d="M388.226,809.473 Q388.421,809.199 388.655,809.063 Q388.89,808.926 389.163,808.926 Q389.632,808.926 389.925,809.258 Q390.218,809.57 390.218,810.332 L390.218,812.148 Q390.218,812.91 389.925,813.242 Q389.632,813.574 389.163,813.574 Q388.734,813.574 388.48,813.32 Q388.226,813.086 388.089,812.441 Q388.03,811.992 387.796,811.758 Q387.386,811.289 386.624,811.016 Q385.862,810.742 385.081,810.742 Q384.124,810.742 383.323,811.152 Q382.542,811.563 381.917,812.5 Q381.312,813.438 381.312,814.727 L381.312,816.094 Q381.312,817.637 382.425,818.672 Q383.538,819.688 385.53,819.688 Q386.702,819.688 387.523,819.375 Q388.011,819.18 388.538,818.633 Q388.87,818.301 389.046,818.203 Q389.241,818.105 389.495,818.105 Q389.905,818.105 390.218,818.438 Q390.55,818.75 390.55,819.18 Q390.55,819.609 390.12,820.117 Q389.495,820.84 388.499,821.25 Q387.151,821.816 385.53,821.816 Q383.636,821.816 382.132,821.035 Q380.901,820.41 380.042,819.082 Q379.183,817.734 379.183,816.133 L379.183,814.688 Q379.183,813.027 379.944,811.602 Q380.726,810.156 382.093,809.395 Q383.46,808.613 385.003,808.613 Q385.921,808.613 386.722,808.828 Q387.542,809.023 388.226,809.473 Z " fill="#000"/><text x="439.562" y="811.333" fill="#000" font-size="15" textLength="88.381" font-style="italic">«Repository»</text><text x="410.394" y="830.2" fill="#000" font-size="15" textLength="146.719">WorkspaceRepository</text><line x1="38.75" y1="839.746" x2="888.131" y2="839.746" style="stroke:#37474F;stroke-width:0.625;"/><text x="45" y="862.913" fill="#000" font-size="17.5" textLength="172.112">-prisma : PrismaClient</text><line x1="38.75" y1="871.758" x2="888.131" y2="871.758" style="stroke:#37474F;stroke-width:0.625;"/><text x="45" y="894.924" fill="#000" font-size="17.5" textLength="606.407">+findWorkspaceByNameAndOwner(userId : string, name : string) : Workspace</text><text x="45" y="916.936" fill="#000" font-size="17.5" textLength="542.227">+createWorkspaceRecord(data : CreateWorkspaceData) : Workspace</text><text x="45" y="938.948" fill="#000" font-size="17.5" textLength="631.743">+updateWorkspaceRecord(id : string, data : UpdateWorkspaceData) : Workspace</text><text x="45" y="960.959" fill="#000" font-size="17.5" textLength="361.305">+softDeleteWorkspace(id : string) : Workspace</text><text x="45" y="982.971" fill="#000" font-size="17.5" textLength="477.986">+findMembersByWorkspace(id : string) : WorkspaceMember[]</text><text x="45" y="1004.983" fill="#000" font-size="17.5" textLength="609.287">+findMemberByEmail(workspaceId : string, email : string) : WorkspaceMember</text><text x="45" y="1026.995" fill="#000" font-size="17.5" textLength="551.925">+findMember(workspaceId : string, userId : string) : WorkspaceMember</text><text x="45" y="1049.006" fill="#000" font-size="17.5" textLength="836.881">+createWorkspaceMember(workspaceId : string, userId : string, role : WorkspaceRole) : WorkspaceMember</text><text x="45" y="1071.018" fill="#000" font-size="17.5" textLength="539.313">+deleteWorkspaceMember(workspaceId : string, userId : string) : void</text><text x="45" y="1093.03" fill="#000" font-size="17.5" textLength="448.822">+removeAllWorkspaceMembers(workspaceId : string) : int</text><text x="45" y="1115.042" fill="#000" font-size="17.5" textLength="313.667">+countOwners(workspaceId : string) : int</text><text x="45" y="1137.053" fill="#000" font-size="17.5" textLength="436.244">+createInvite(data : CreateInviteData) : WorkspaceInvite</text><text x="45" y="1159.065" fill="#000" font-size="17.5" textLength="405.106">+findInviteByToken(token : string) : WorkspaceInvite</text><text x="45" y="1181.077" fill="#000" font-size="17.5" textLength="358.383">+markInviteUsed(id : string) : WorkspaceInvite</text><text x="45" y="1203.088" fill="#000" font-size="17.5" textLength="497.502">+findPendingInvitesByWorkspace(id : string) : WorkspaceInvite[]</text><text x="45" y="1225.1" fill="#000" font-size="17.5" textLength="430.416">+createNotification(data : NotificationData) : Notification</text><text x="45" y="1247.112" fill="#000" font-size="17.5" textLength="377.968">+createAuditLog(data : AuditLogData) : AuditLog</text></g><g class="link" data-entity-1="ent0002" data-entity-2="ent0003" id="lnk7" data-link-type="dependency"><polygon points="482.5,431.482,487.5,420.232,482.5,425.232,477.5,420.232,482.5,431.482" fill="#455A64" style="stroke:#455A64;stroke-width:1.25;stroke-linejoin:miter;stroke-miterlimit:10;"/><path d="M482.5,387.462 C482.5,401.943 482.5,410.52 482.5,425.232" style="stroke:#455A64;stroke-width:1.25;" fill="none"/></g><g class="link" data-entity-1="ent0003" data-entity-2="ent0004" id="lnk8" data-link-type="dependency"><polygon points="473.828,789.247,479.312,778.224,474.1,783.003,469.321,777.79,473.828,789.247" fill="#455A64" style="stroke:#455A64;stroke-width:1.25;stroke-linejoin:miter;stroke-miterlimit:10;"/><path d="M475.757,744.818 C475.127,759.328 474.751,767.991 474.1,783.003" style="stroke:#455A64;stroke-width:1.25;stroke-dasharray:8.75,8.75;" fill="none"/></g><g class="link" data-entity-1="ent0003" data-entity-2="ent0005" id="lnk9" data-link-type="dependency"><polygon points="1076.358,943.196,1072.826,931.402,1072.288,938.453,1065.237,937.914,1076.358,943.196" fill="#455A64" style="stroke:#455A64;stroke-width:1.25;stroke-linejoin:miter;stroke-miterlimit:10;"/><path d="M845.203,744.705 C869.413,758.852 892.921,773.81 915,789.512 C976.089,832.957 1030.46,889.708 1072.288,938.453" style="stroke:#455A64;stroke-width:1.25;stroke-dasharray:8.75,8.75;" fill="none"/></g><g class="link" data-entity-1="ent0004" data-entity-2="ent0006" id="lnk10" data-link-type="dependency"><polygon points="463.75,1300.433,468.75,1289.183,463.75,1294.183,458.75,1289.183,463.75,1300.433" fill="#455A64" style="stroke:#455A64;stroke-width:1.25;stroke-linejoin:miter;stroke-miterlimit:10;"/><path d="M463.75,1255.841 C463.75,1271.09 463.75,1279.827 463.75,1294.183" style="stroke:#455A64;stroke-width:1.25;stroke-dasharray:8.75,8.75;" fill="none"/></g><?plantuml-src rLVRRjms47tNLp39YuDwZIHraiPO6D2kru23N5nVqeUYGBZIx2wn5AcIr3fgO20VqI_ibtH4NIbHxlgn-oGUpXpE36U6iqzIHTS99PpcCZD49s2eeC4JFwotJAHKqOJ4AIClNxte87f3Otd7n9giADVGsOaurJeqHh5bPk0YakAQ_GMagvpIQ4lNS6ro3aH1XAUj-O23V0y8cQ7eMibCn7F9fIBFpksls94g1bMXFxyzVdjSeA5Iygu2Zr-_3jyS8tWkXR56l7mLt7UTCA10cZo5-U2STo_cuVcxm323DlucrLQZrK3--V4tcLlhpXXT8qaGLDwGftUrr5FoRF7B8Zn_OrqedMaevcYCafo38jDfkpWzjSA4J4Z3Smrgn_3GarQxWgpaJoHIG0qqcmVe6DxV2Pcx-DdDv-TT4bnN15aQkmGnoccyEx4-93NRhIiqpXO3Xn6sGcCdMLn9SgRDHqYMeFf29Ve1zrjU9dRCm52-DV6Y8z6thzohg6WKGMfAwC38BGZdzB2pVGKwuwOs6EXkByyK97BdjJMns8LNytwO9_NbJwVLboz3hY2LcXcfygx7BLh99vJnYcNE6OWYP1_xs4XEPTenketv_oZ9zAEph8bmp_L2n1-ElLDm1ugjyj4K_DBPVYW5_HRsRkkXvFGJ3BBq46i6KscCTEAGNWWCZw3yKUHCYZrhefFkqscxw5H6gfZ6b-o4NDeF9xDNJCGDrIp_H1C8HVpvJc0m1bakSDUngj7qryaLHFWW7M0IKqzj8EhZw5L6nU7KHqNOBuyHGYrNvkpX0kch556fgcIM_xTMAVhx7mFjMRuesip8pKEnzn3ZW6__1FSpzUxdCQI71DzavzczmlNuKRsMz5Zx1mKQSjuZqrwsGfcrZHkd5sEpUIzf6vwg2pbPMsA337DwM75D9J3BRueMvcbaVis4gcq9t6g8HzDiSDebY1Y5IdolJ2r5cqmj7Vua3LknY1PDftQxYzLkTp678CnYPZx8TQrShsl5UcqRs7qGb1riyDWMiv_zg7hNX1X5XKwbmWPQlSutBM8bLaec2wUEB4pJT4Ort2e7nru0zHsLXUcMu24PtfXDnCRcTkYTJXS21-6yiRKJShjscgL5k5nB5qav5TthkSHrKBqVb0aKm_J3s3LPYcCBJiSRdl-QIHlg6YwO5jzIfW3_Po2EeOSRbe3TN6BGuY-o79lVQxmzTCWtV4ycfyEnUZ1z7HsTUkSgh-1mfFAzN0vb40XfW2obCJ8XSkKToyfBJoGZPaF5XkmG9t4c8tmTShAZadorbplvCuCClgB6WLKfJa5FlsM4vy-nIv7jHk8_jYMNqHR3ZjBQ70MO9gGmuby0?></g></svg>